<svg width="77" height="68" viewBox="0 0 77 68" fill="none" xmlns="http://www.w3.org/2000/svg">
<g clip-path="url(#clip0_763_16477)">
<path d="M67.5 14H9.5V52H67.5V14Z" fill="#ADD1FF"/>
<path fill-rule="evenodd" clip-rule="evenodd" d="M10.5 15H66.5V50.9H10.5V15ZM7.5 50.9V15C7.5 13.3 8.8 12 10.5 12H66.5C68.2 12 69.5 13.3 69.5 15V50.9H76.5V52C76.5 54.2 74.7 56 72.5 56H4.5C2.3 56 0.5 54.2 0.5 52V50.9H7.5Z" fill="#54656F"/>
<path fill-rule="evenodd" clip-rule="evenodd" d="M10.5 15H66.5V50.9H10.5V15ZM7.5 50.9V15C7.5 13.3 8.8 12 10.5 12H66.5C68.2 12 69.5 13.3 69.5 15V50.9H76.5V52C76.5 54.2 74.7 56 72.5 56H4.5C2.3 56 0.5 54.2 0.5 52V50.9H7.5Z" fill="black" fill-opacity="0.6"/>
<g clip-path="url(#clip1_763_16477)">
<rect x="21.5" y="31" width="34" height="34" rx="6.93204" fill="#007BFF" fill-opacity="0.3"/>
<mask id="mask0_763_16477" style="mask-type:luminance" maskUnits="userSpaceOnUse" x="21" y="31" width="35" height="34">
<rect x="21.5" y="31" width="34" height="34" fill="white"/>
</mask>
<g mask="url(#mask0_763_16477)">
<rect x="21.5" y="30.3398" width="34" height="34.6602" fill="#0068FF"/>
</g>
<g clip-path="url(#clip2_763_16477)">
<path opacity="0.117278" fill-rule="evenodd" clip-rule="evenodd" d="M26.5732 60.3795L36.9125 71.0272H82.409V38.1327L26.5732 60.3795Z" fill="black"/>
<path fill-rule="evenodd" clip-rule="evenodd" d="M29.1021 31.2867C35.4972 25.1277 50.0028 25.1277 56.3978 31.2867C62.7931 37.446 62.7931 51.416 56.3978 57.5749C50.0028 63.7339 35.4972 63.7339 29.1021 57.5749C22.7072 51.416 22.7072 37.446 29.1021 31.2867Z" fill="white"/>
<path fill-rule="evenodd" clip-rule="evenodd" d="M26.8959 60.489C29.3351 60.7558 32.7181 59.5268 33.436 58.2659C35.0474 55.4352 27.031 54.9509 27.8244 56.1259C28.5554 57.2082 27.8459 59.0899 26.744 60.186C26.5678 60.3609 26.6383 60.4607 26.8959 60.489Z" fill="white"/>
<path fill-rule="evenodd" clip-rule="evenodd" d="M35.556 42.5164H28.982V43.925H33.5421L29.0381 49.5037C28.9019 49.7053 28.7942 49.8988 28.7942 50.3326V50.6869H34.9925C35.3036 50.6869 35.556 50.4346 35.556 50.1234V49.3721H30.7722L34.9973 44.0655C35.0565 43.9889 35.1809 43.8476 35.2341 43.7875L35.2633 43.754C35.5061 43.3959 35.556 43.0906 35.556 42.7168V42.5164Z" fill="#0068FF"/>
<path fill-rule="evenodd" clip-rule="evenodd" d="M43.9132 50.6869H44.8527V42.5164H43.4438V50.2177C43.4438 50.4764 43.6543 50.6869 43.9132 50.6869Z" fill="#0068FF"/>
<path fill-rule="evenodd" clip-rule="evenodd" d="M39.107 49.4239C38.0642 49.4239 37.2188 48.5785 37.2188 47.5357C37.2188 46.4929 38.0642 45.6476 39.107 45.6476C40.1498 45.6476 40.9951 46.4929 40.9951 47.5357C40.9951 48.5785 40.1498 49.4239 39.107 49.4239ZM39.1071 44.3259C37.3343 44.3259 35.8972 45.7632 35.8972 47.5357C35.8972 49.3085 37.3343 50.7456 39.1071 50.7456C40.8799 50.7456 42.317 49.3085 42.317 47.5357C42.317 45.7632 40.8799 44.3259 39.1071 44.3259Z" fill="#0068FF"/>
<path fill-rule="evenodd" clip-rule="evenodd" d="M49.0176 49.4201C47.9678 49.4201 47.1166 48.5689 47.1166 47.519C47.1166 46.4691 47.9678 45.618 49.0176 45.618C50.0675 45.618 50.9187 46.4691 50.9187 47.519C50.9187 48.5689 50.0675 49.4201 49.0176 49.4201ZM49.0176 44.2874C47.2327 44.2874 45.7859 45.7342 45.7859 47.5191C45.7859 49.3039 47.2327 50.7508 49.0176 50.7508C50.8024 50.7508 52.2493 49.3039 52.2493 47.5191C52.2493 45.7342 50.8024 44.2874 49.0176 44.2874Z" fill="#0068FF"/>
<path fill-rule="evenodd" clip-rule="evenodd" d="M41.5639 50.6868H42.3168V44.5044H41.0007V50.1237C41.0007 50.4348 41.2528 50.6868 41.5639 50.6868Z" fill="#0068FF"/>
</g>
</g>
</g>
<defs>
<clipPath id="clip0_763_16477">
<rect width="76" height="68" fill="white" transform="translate(0.5)"/>
</clipPath>
<clipPath id="clip1_763_16477">
<rect x="21.5" y="31" width="34" height="34" rx="6.93204" fill="white"/>
</clipPath>
<clipPath id="clip2_763_16477">
<rect width="60.284" height="44.3981" fill="white" transform="translate(24.3059 26.6675)"/>
</clipPath>
</defs>
</svg>
